<?xml version="1.0" standalone="no"?>
<!DOCTYPE svg PUBLIC "-//W3C//DTD SVG 20010904//EN"
 "http://www.w3.org/TR/2001/REC-SVG-20010904/DTD/svg10.dtd">
<svg version="1.0" xmlns="http://www.w3.org/2000/svg"
 width="540.000000pt" height="391.000000pt" viewBox="0 0 540.000000 391.000000"
 preserveAspectRatio="xMidYMid meet">

<g transform="translate(0.000000,391.000000) scale(0.100000,-0.100000)"
fill="#000000" stroke="none">
<path d="M3755 3325 c-133 -34 -253 -81 -389 -149 -118 -59 -316 -183 -316
-197 0 -3 51 -12 113 -19 208 -22 449 -69 641 -125 49 -14 90 -24 92 -23 1 2
-2 124 -9 271 -9 231 -13 267 -26 267 -9 -1 -56 -12 -106 -25z"/>
<path d="M1500 3273 c-1 -27 -5 -131 -10 -233 -5 -102 -7 -186 -5 -189 3 -2
35 4 72 13 141 36 353 75 493 91 80 9 165 20 190 24 l45 7 -75 49 c-92 60
-252 145 -351 186 -88 36 -301 99 -335 99 -22 0 -24 -4 -24 -47z"/>
<path d="M4194 2961 c1 -237 3 -265 18 -275 9 -5 20 -7 23 -4 4 4 -4 127 -18
275 l-25 268 2 -264z"/>
<path d="M1180 3178 c0 -13 -9 -117 -20 -232 -11 -116 -18 -212 -16 -214 3 -2
14 1 25 8 20 10 21 18 21 235 0 124 -2 225 -5 225 -3 0 -5 -10 -5 -22z"/>
<path d="M2415 2874 c-260 -19 -348 -28 -465 -45 -879 -130 -1527 -499 -1674
-953 -45 -136 -33 -321 28 -459 102 -232 371 -463 726 -623 118 -54 436 -167
452 -162 5 2 -39 21 -98 42 -285 103 -563 279 -690 437 -239 295 -229 592 30
866 43 46 114 110 157 143 77 58 207 136 214 129 1 -2 -15 -208 -38 -458 l-40
-454 21 -17 c12 -10 92 -44 179 -75 532 -194 657 -247 869 -367 78 -44 186
-114 239 -156 l98 -77 114 -200 115 -200 -6 240 c-7 254 -27 920 -51 1649 -8
242 -11 444 -8 449 6 10 194 0 204 -11 3 -4 -9 -464 -27 -1022 -41 -1308 -40
-1260 -34 -1260 3 0 55 87 115 192 95 165 118 198 168 240 215 179 522 330
1037 511 199 70 294 109 304 125 3 5 -10 187 -29 403 -19 215 -34 394 -32 396
6 5 178 -130 204 -160 111 -131 151 -195 189 -307 29 -84 26 -253 -4 -342 -27
-79 -102 -197 -170 -270 -139 -149 -385 -299 -655 -399 -64 -24 -114 -45 -109
-47 14 -4 274 85 397 137 321 136 580 326 714 525 173 256 173 517 1 775 -275
411 -972 711 -1835 791 -117 11 -526 20 -610 14z m-955 -526 c0 -35 -7 -204
-15 -377 -8 -185 -10 -322 -5 -331 13 -24 74 -72 240 -190 266 -188 427 -332
520 -465 l35 -50 -50 38 c-252 191 -556 358 -892 487 l-113 44 0 397 0 397 34
16 c47 22 229 96 239 96 4 0 7 -28 7 -62z m2593 -51 c62 -29 120 -61 129 -70
15 -15 17 -52 18 -355 l0 -338 -162 -64 c-283 -111 -644 -309 -813 -444 -63
-51 -73 -55 -51 -21 100 153 226 265 576 511 52 37 117 86 144 108 l49 40 -7
201 c-3 110 -9 264 -13 343 -5 109 -3 142 6 142 7 0 63 -24 124 -53z"/>
<path d="M1508 623 c7 -3 16 -2 19 1 4 3 -2 6 -13 5 -11 0 -14 -3 -6 -6z"/>
</g>
</svg>
